<svg width="40" height="40" viewBox="0 0 40 40" fill="none" xmlns="http://www.w3.org/2000/svg">
<rect width="40" height="40" rx="8" fill="#3A643B" fill-opacity="0.05"/>
<g clip-path="url(#clip0_57_28421)">
<g clip-path="url(#clip1_57_28421)">
<path d="M24.0236 12.9641V11.6641C24.0236 11.3224 23.7403 11.0391 23.3986 11.0391C23.0569 11.0391 22.7736 11.3224 22.7736 11.6641V12.9141H17.357V11.6641C17.357 11.3224 17.0736 11.0391 16.732 11.0391C16.3903 11.0391 16.107 11.3224 16.107 11.6641V12.9641C13.857 13.1724 12.7653 14.5141 12.5986 16.5057C12.582 16.7474 12.782 16.9474 13.0153 16.9474H27.1153C27.3569 16.9474 27.5569 16.7391 27.5319 16.5057C27.3653 14.5141 26.2736 13.1724 24.0236 12.9641Z" fill="#333548" fill-opacity="0.75"/>
<path opacity="0.4" d="M26.7331 18.2031C27.1915 18.2031 27.5665 18.5781 27.5665 19.0365V24.1698C27.5665 26.6698 26.3165 28.3365 23.3998 28.3365H16.7331C13.8164 28.3365 12.5664 26.6698 12.5664 24.1698V19.0365C12.5664 18.5781 12.9414 18.2031 13.3997 18.2031H26.7331Z" fill="#333548" fill-opacity="0.75"/>
<path d="M17.1497 22.5017C16.9331 22.5017 16.7164 22.41 16.5581 22.26C16.4081 22.1017 16.3164 21.885 16.3164 21.6684C16.3164 21.4517 16.4081 21.235 16.5581 21.0767C16.7914 20.8434 17.1581 20.7683 17.4664 20.9017C17.5747 20.9433 17.6664 21.0017 17.7414 21.0767C17.8914 21.235 17.9831 21.4517 17.9831 21.6684C17.9831 21.885 17.8914 22.1017 17.7414 22.26C17.5831 22.41 17.3664 22.5017 17.1497 22.5017Z" fill="#333548" fill-opacity="0.75"/>
<path d="M20.0657 22.5017C19.8491 22.5017 19.6324 22.41 19.4741 22.26C19.3241 22.1017 19.2324 21.885 19.2324 21.6684C19.2324 21.4517 19.3241 21.235 19.4741 21.0767C19.5491 21.0017 19.6407 20.9433 19.7491 20.9017C20.0574 20.7683 20.4241 20.8434 20.6574 21.0767C20.8074 21.235 20.8991 21.4517 20.8991 21.6684C20.8991 21.885 20.8074 22.1017 20.6574 22.26C20.6157 22.2933 20.5741 22.3267 20.5324 22.36C20.4824 22.3933 20.4324 22.4184 20.3824 22.435C20.3324 22.46 20.2824 22.4767 20.2324 22.485C20.1741 22.4934 20.1241 22.5017 20.0657 22.5017Z" fill="#333548" fill-opacity="0.75"/>
<path d="M22.9837 22.5026C22.7671 22.5026 22.5504 22.4109 22.3921 22.2609C22.2421 22.1026 22.1504 21.8859 22.1504 21.6693C22.1504 21.4526 22.2421 21.236 22.3921 21.0776C22.4754 21.0026 22.5587 20.9443 22.6671 20.9026C22.8171 20.8359 22.9837 20.8193 23.1504 20.8526C23.2004 20.8609 23.2504 20.8776 23.3004 20.9026C23.3504 20.9193 23.4004 20.9443 23.4504 20.9776C23.4921 21.011 23.5337 21.0443 23.5754 21.0776C23.7254 21.236 23.8171 21.4526 23.8171 21.6693C23.8171 21.8859 23.7254 22.1026 23.5754 22.2609C23.5337 22.2943 23.4921 22.3276 23.4504 22.3609C23.4004 22.3943 23.3504 22.4193 23.3004 22.436C23.2504 22.461 23.2004 22.4776 23.1504 22.486C23.0921 22.4943 23.0337 22.5026 22.9837 22.5026Z" fill="#333548" fill-opacity="0.75"/>
<path d="M17.1497 25.4167C17.0414 25.4167 16.9331 25.3917 16.8331 25.35C16.7247 25.3084 16.6414 25.25 16.5581 25.175C16.4081 25.0167 16.3164 24.8 16.3164 24.5833C16.3164 24.3667 16.4081 24.15 16.5581 23.9917C16.6414 23.9167 16.7247 23.8583 16.8331 23.8167C16.9831 23.75 17.1497 23.7333 17.3164 23.7667C17.3664 23.775 17.4164 23.7917 17.4664 23.8167C17.5164 23.8333 17.5664 23.8584 17.6164 23.8917C17.6581 23.925 17.6997 23.9584 17.7414 23.9917C17.8914 24.15 17.9831 24.3667 17.9831 24.5833C17.9831 24.8 17.8914 25.0167 17.7414 25.175C17.6997 25.2083 17.6581 25.25 17.6164 25.275C17.5664 25.3083 17.5164 25.3334 17.4664 25.35C17.4164 25.375 17.3664 25.3917 17.3164 25.4C17.2581 25.4084 17.2081 25.4167 17.1497 25.4167Z" fill="#333548" fill-opacity="0.75"/>
<path d="M20.0657 25.4141C19.8491 25.4141 19.6324 25.3224 19.4741 25.1724C19.3241 25.014 19.2324 24.7974 19.2324 24.5807C19.2324 24.3641 19.3241 24.1474 19.4741 23.9891C19.7824 23.6807 20.3491 23.6807 20.6574 23.9891C20.8074 24.1474 20.8991 24.3641 20.8991 24.5807C20.8991 24.7974 20.8074 25.014 20.6574 25.1724C20.4991 25.3224 20.2824 25.4141 20.0657 25.4141Z" fill="#333548" fill-opacity="0.75"/>
<path d="M22.9837 25.4141C22.7671 25.4141 22.5504 25.3224 22.3921 25.1724C22.2421 25.014 22.1504 24.7974 22.1504 24.5807C22.1504 24.3641 22.2421 24.1474 22.3921 23.9891C22.7004 23.6807 23.2671 23.6807 23.5754 23.9891C23.7254 24.1474 23.8171 24.3641 23.8171 24.5807C23.8171 24.7974 23.7254 25.014 23.5754 25.1724C23.4171 25.3224 23.2004 25.4141 22.9837 25.4141Z" fill="#333548" fill-opacity="0.75"/>
</g>
</g>
<defs>
<clipPath id="clip0_57_28421">
<rect width="21" height="20" fill="white" transform="translate(9.5 10)"/>
</clipPath>
<clipPath id="clip1_57_28421">
<rect width="21" height="20" fill="white" transform="translate(9.5 10)"/>
</clipPath>
</defs>
</svg>
