<svg width="24" height="24" viewBox="0 0 24 24" fill="none" xmlns="http://www.w3.org/2000/svg">
<g clip-path="url(#clip0_57_28549)">
<g clip-path="url(#clip1_57_28549)">
<path d="M15.6059 2.52824V0.981773C15.6059 0.575331 15.2688 0.238281 14.8624 0.238281C14.456 0.238281 14.1189 0.575331 14.1189 0.981773V2.46876H7.67528V0.981773C7.67528 0.575331 7.33823 0.238281 6.93179 0.238281C6.52535 0.238281 6.1883 0.575331 6.1883 0.981773V2.52824C3.51173 2.77607 2.21309 4.3721 2.01483 6.74136C1.995 7.02884 2.23292 7.26676 2.51049 7.26676H19.2837C19.5712 7.26676 19.8091 7.01893 19.7794 6.74136C19.5811 4.3721 18.2825 2.77607 15.6059 2.52824Z" fill="#3A643B"/>
<path opacity="0.4" d="M18.8271 8.75781C19.3723 8.75781 19.8184 9.20386 19.8184 9.74918V15.8557C19.8184 18.8297 18.3314 20.8123 14.8618 20.8123H6.93122C3.46159 20.8123 1.97461 18.8297 1.97461 15.8557V9.74918C1.97461 9.20386 2.4207 8.75781 2.96593 8.75781H18.8271Z" fill="#3A643B"/>
<path d="M7.42687 13.8683C7.16913 13.8683 6.91138 13.7592 6.72303 13.5808C6.54459 13.3924 6.43555 13.1347 6.43555 12.8769C6.43555 12.6192 6.54459 12.3615 6.72303 12.1731C7.0006 11.8955 7.43678 11.8063 7.80357 11.9649C7.93244 12.0145 8.04149 12.0839 8.13071 12.1731C8.30915 12.3615 8.41819 12.6192 8.41819 12.8769C8.41819 13.1347 8.30915 13.3924 8.13071 13.5808C7.94236 13.7592 7.68461 13.8683 7.42687 13.8683Z" fill="#3A643B"/>
<path d="M10.8956 13.8683C10.6379 13.8683 10.3801 13.7592 10.1918 13.5808C10.0133 13.3924 9.9043 13.1347 9.9043 12.8769C9.9043 12.6192 10.0133 12.3615 10.1918 12.1731C10.281 12.0839 10.39 12.0145 10.5189 11.9649C10.8857 11.8063 11.3219 11.8955 11.5995 12.1731C11.7779 12.3615 11.8869 12.6192 11.8869 12.8769C11.8869 13.1347 11.7779 13.3924 11.5995 13.5808C11.5499 13.6204 11.5003 13.6601 11.4508 13.6997C11.3913 13.7394 11.3318 13.7691 11.2723 13.789C11.2128 13.8187 11.1534 13.8385 11.0939 13.8484C11.0245 13.8583 10.965 13.8683 10.8956 13.8683Z" fill="#3A643B"/>
<path d="M14.3663 13.8694C14.1086 13.8694 13.8508 13.7603 13.6625 13.5819C13.484 13.3935 13.375 13.1358 13.375 12.878C13.375 12.6203 13.484 12.3626 13.6625 12.1742C13.7616 12.085 13.8607 12.0156 13.9896 11.966C14.1681 11.8867 14.3663 11.8669 14.5646 11.9065C14.6241 11.9165 14.6835 11.9363 14.743 11.966C14.8025 11.9859 14.862 12.0156 14.9215 12.0552C14.971 12.0949 15.0206 12.1345 15.0702 12.1742C15.2486 12.3626 15.3576 12.6203 15.3576 12.878C15.3576 13.1358 15.2486 13.3935 15.0702 13.5819C15.0206 13.6215 14.971 13.6612 14.9215 13.7008C14.862 13.7405 14.8025 13.7702 14.743 13.7901C14.6835 13.8198 14.6241 13.8396 14.5646 13.8495C14.4952 13.8595 14.4258 13.8694 14.3663 13.8694Z" fill="#3A643B"/>
<path d="M7.42687 17.342C7.298 17.342 7.16913 17.3123 7.05017 17.2627C6.92129 17.2131 6.82216 17.1438 6.72303 17.0545C6.54459 16.8662 6.43555 16.6084 6.43555 16.3507C6.43555 16.093 6.54459 15.8352 6.72303 15.6469C6.82216 15.5576 6.92129 15.4882 7.05017 15.4387C7.22861 15.3594 7.42687 15.3395 7.62513 15.3792C7.68461 15.3891 7.74409 15.4089 7.80357 15.4387C7.86305 15.4585 7.92253 15.4882 7.98201 15.5279C8.03158 15.5676 8.08114 15.6072 8.13071 15.6469C8.30915 15.8352 8.41819 16.093 8.41819 16.3507C8.41819 16.6084 8.30915 16.8662 8.13071 17.0545C8.08114 17.0942 8.03158 17.1438 7.98201 17.1735C7.92253 17.2131 7.86305 17.2429 7.80357 17.2627C7.74409 17.2925 7.68461 17.3123 7.62513 17.3222C7.55574 17.3321 7.49626 17.342 7.42687 17.342Z" fill="#3A643B"/>
<path d="M10.8956 17.3413C10.6379 17.3413 10.3801 17.2323 10.1918 17.0539C10.0133 16.8655 9.9043 16.6078 9.9043 16.35C9.9043 16.0923 10.0133 15.8345 10.1918 15.6462C10.5586 15.2794 11.2327 15.2794 11.5995 15.6462C11.7779 15.8345 11.8869 16.0923 11.8869 16.35C11.8869 16.6078 11.7779 16.8655 11.5995 17.0539C11.4111 17.2323 11.1534 17.3413 10.8956 17.3413Z" fill="#3A643B"/>
<path d="M14.3644 17.3413C14.1066 17.3413 13.8489 17.2323 13.6605 17.0539C13.4821 16.8655 13.373 16.6078 13.373 16.35C13.373 16.0923 13.4821 15.8345 13.6605 15.6462C14.0273 15.2794 14.7014 15.2794 15.0682 15.6462C15.2466 15.8345 15.3557 16.0923 15.3557 16.35C15.3557 16.6078 15.2466 16.8655 15.0682 17.0539C14.8799 17.2323 14.6221 17.3413 14.3644 17.3413Z" fill="#3A643B"/>
</g>
</g>
<defs>
<clipPath id="clip0_57_28549">
<rect width="23.7917" height="23.7917" fill="white"/>
</clipPath>
<clipPath id="clip1_57_28549">
<rect width="23.7917" height="23.7917" fill="white" transform="translate(-1 -1)"/>
</clipPath>
</defs>
</svg>
