<svg width="40" height="40" viewBox="0 0 40 40" fill="none" xmlns="http://www.w3.org/2000/svg">
<rect width="40" height="40" rx="8" fill="#3A643B" fill-opacity="0.05"/>
<g clip-path="url(#clip0_57_28453)">
<g clip-path="url(#clip1_57_28453)">
<path opacity="0.4" d="M16.7331 28.3307H23.3998C25.6998 28.3307 27.5665 26.4641 27.5665 24.1641V15.8307C27.5665 13.5307 25.6998 11.6641 23.3998 11.6641H16.7331C14.4331 11.6641 12.5664 13.5307 12.5664 15.8307V24.1641C12.5664 26.4641 14.4331 28.3307 16.7331 28.3307Z" fill="#333548" fill-opacity="0.75"/>
<path d="M22.5667 14.7578H17.5667C16.7083 14.7578 16 15.4578 16 16.3245V17.1578C16 18.0162 16.7 18.7245 17.5667 18.7245H22.5667C23.425 18.7245 24.1333 18.0245 24.1333 17.1578V16.3245C24.1333 15.4578 23.4333 14.7578 22.5667 14.7578Z" fill="#333548" fill-opacity="0.75"/>
<path d="M16.8671 22.433C16.7504 22.433 16.6421 22.408 16.5421 22.3664C16.4421 22.3247 16.3504 22.2664 16.2754 22.1914C16.1171 22.033 16.0254 21.8247 16.0254 21.5997C16.0254 21.4914 16.0504 21.383 16.0921 21.283C16.1337 21.1747 16.1921 21.0914 16.2754 21.008C16.4671 20.8164 16.7587 20.7247 17.0254 20.783C17.0754 20.7914 17.1337 20.808 17.1837 20.833C17.2337 20.8497 17.2837 20.8747 17.3254 20.908C17.3754 20.933 17.4171 20.9747 17.4504 21.008C17.5254 21.0914 17.5921 21.1747 17.6337 21.283C17.6754 21.383 17.6921 21.4914 17.6921 21.5997C17.6921 21.8247 17.6087 22.033 17.4504 22.1914C17.2921 22.3497 17.0837 22.433 16.8671 22.433Z" fill="#333548" fill-opacity="0.75"/>
<path d="M20.1927 22.4297C19.976 22.4297 19.7677 22.3464 19.6093 22.188C19.451 22.0297 19.3594 21.8214 19.3594 21.5964C19.3594 21.3797 19.451 21.163 19.6093 21.0047C19.9177 20.6964 20.476 20.6964 20.7843 21.0047C20.8593 21.088 20.926 21.1714 20.9677 21.2797C21.0093 21.3797 21.026 21.488 21.026 21.5964C21.026 21.8214 20.9427 22.0297 20.7843 22.188C20.626 22.3464 20.4177 22.4297 20.1927 22.4297Z" fill="#333548" fill-opacity="0.75"/>
<path d="M23.5247 22.4297C23.3081 22.4297 23.0997 22.3464 22.9414 22.188C22.7831 22.0297 22.6914 21.8214 22.6914 21.5964C22.6914 21.3797 22.7831 21.163 22.9414 21.0047C23.2497 20.6964 23.8081 20.6964 24.1164 21.0047C24.2747 21.163 24.3664 21.3797 24.3664 21.5964C24.3664 21.7047 24.3414 21.813 24.2997 21.913C24.2581 22.013 24.1997 22.1047 24.1164 22.188C23.9581 22.3464 23.7497 22.4297 23.5247 22.4297Z" fill="#333548" fill-opacity="0.75"/>
<path d="M16.8671 25.7641C16.6421 25.7641 16.4337 25.6807 16.2754 25.5224C16.1171 25.3641 16.0254 25.1557 16.0254 24.9307C16.0254 24.7141 16.1171 24.4974 16.2754 24.3391C16.3504 24.2641 16.4421 24.2057 16.5421 24.1641C16.7504 24.0807 16.9754 24.0807 17.1837 24.1641C17.2337 24.1807 17.2837 24.2057 17.3254 24.2391C17.3754 24.2641 17.4171 24.3057 17.4504 24.3391C17.6087 24.4974 17.7004 24.7141 17.7004 24.9307C17.7004 25.1557 17.6087 25.3641 17.4504 25.5224C17.2921 25.6807 17.0837 25.7641 16.8671 25.7641Z" fill="#333548" fill-opacity="0.75"/>
<path d="M20.1927 25.7636C19.976 25.7636 19.7677 25.6803 19.6093 25.5219C19.451 25.3636 19.3594 25.1553 19.3594 24.9303C19.3594 24.8719 19.3677 24.8219 19.376 24.7636C19.3927 24.7136 19.4094 24.6636 19.426 24.6136C19.451 24.5636 19.476 24.5136 19.501 24.4636C19.5343 24.4219 19.5677 24.3803 19.6093 24.3386C19.6843 24.2636 19.776 24.2053 19.876 24.1636C20.1843 24.0386 20.551 24.1053 20.7843 24.3386C20.9427 24.4969 21.026 24.7136 21.026 24.9303C21.026 25.1553 20.9427 25.3636 20.7843 25.5219C20.7093 25.5969 20.6177 25.6553 20.5177 25.6969C20.4177 25.7386 20.3093 25.7636 20.1927 25.7636Z" fill="#333548" fill-opacity="0.75"/>
<path d="M23.5262 25.7636C23.4179 25.7636 23.3095 25.7386 23.2095 25.6969C23.1095 25.6553 23.0179 25.5969 22.9429 25.5219C22.7845 25.3636 22.7012 25.1553 22.7012 24.9303C22.7012 24.7136 22.7845 24.4969 22.9429 24.3386C23.1679 24.1053 23.5429 24.0386 23.8512 24.1636C23.9512 24.2053 24.0429 24.2636 24.1179 24.3386C24.2762 24.4969 24.3595 24.7136 24.3595 24.9303C24.3595 25.1553 24.2762 25.3636 24.1179 25.5219C23.9595 25.6803 23.7512 25.7636 23.5262 25.7636Z" fill="#333548" fill-opacity="0.75"/>
</g>
</g>
<defs>
<clipPath id="clip0_57_28453">
<rect width="21" height="20" fill="white" transform="translate(9.5 10)"/>
</clipPath>
<clipPath id="clip1_57_28453">
<rect width="21" height="20" fill="white" transform="translate(9.5 10)"/>
</clipPath>
</defs>
</svg>
