<svg width="40" height="40" viewBox="0 0 40 40" fill="none" xmlns="http://www.w3.org/2000/svg">
<rect width="40" height="40" rx="8" fill="#3A643B" fill-opacity="0.05"/>
<g clip-path="url(#clip0_57_28382)">
<g clip-path="url(#clip1_57_28382)">
<path d="M20.0665 10C17.4464 10 15.3164 12.13 15.3164 14.75C15.3164 17.32 17.3264 19.4 19.9465 19.49C20.0265 19.48 20.1065 19.48 20.1665 19.49C20.1865 19.49 20.1965 19.49 20.2165 19.49C20.2265 19.49 20.2265 19.49 20.2365 19.49C22.7965 19.4 24.8065 17.32 24.8165 14.75C24.8165 12.13 22.6865 10 20.0665 10Z" fill="#72747E"/>
<path opacity="0.4" d="M25.1473 22.1528C22.3573 20.2928 17.8073 20.2928 14.9973 22.1528C13.7273 23.0028 13.0273 24.1528 13.0273 25.3828C13.0273 26.6128 13.7273 27.7528 14.9873 28.5928C16.3873 29.5328 18.2273 30.0028 20.0673 30.0028C21.9073 30.0028 23.7473 29.5328 25.1473 28.5928C26.4073 27.7428 27.1073 26.6028 27.1073 25.3628C27.0973 24.1328 26.4073 22.9928 25.1473 22.1528Z" fill="#72747E"/>
<path d="M22.0665 24.6328H20.8165V23.3828C20.8165 22.9728 20.4765 22.6328 20.0665 22.6328C19.6565 22.6328 19.3165 22.9728 19.3165 23.3828V24.6328H18.0665C17.6565 24.6328 17.3164 24.9728 17.3164 25.3828C17.3164 25.7928 17.6565 26.1328 18.0665 26.1328H19.3165V27.3828C19.3165 27.7928 19.6565 28.1328 20.0665 28.1328C20.4765 28.1328 20.8165 27.7928 20.8165 27.3828V26.1328H22.0665C22.4765 26.1328 22.8165 25.7928 22.8165 25.3828C22.8165 24.9728 22.4765 24.6328 22.0665 24.6328Z" fill="#72747E"/>
</g>
</g>
<defs>
<clipPath id="clip0_57_28382">
<rect width="25" height="24" fill="white" transform="translate(7.5 8)"/>
</clipPath>
<clipPath id="clip1_57_28382">
<rect width="25" height="24" fill="white" transform="translate(7.5 8)"/>
</clipPath>
</defs>
</svg>
