<svg width="14" height="15" viewBox="0 0 14 15" fill="none" xmlns="http://www.w3.org/2000/svg">
<path fill-rule="evenodd" clip-rule="evenodd" d="M9.68608 7.71707C9.97353 7.42856 10.4396 7.42856 10.727 7.71707C11.0145 8.00559 11.0145 8.47337 10.727 8.76188L8.61221 10.8845C7.63802 11.8623 6.05209 11.8623 5.07792 10.8845L2.96311 8.76188C2.67566 8.47337 2.67566 8.00559 2.96311 7.71707C3.25056 7.42856 3.71661 7.42856 4.00406 7.71707L6.10893 9.82975V0.738865C6.10893 0.330804 6.43852 0 6.84507 0C7.25163 0 7.58122 0.330804 7.58122 0.738865V9.82973L9.68608 7.71707ZM12.2179 10.4492V13.313C12.2179 13.4273 12.1232 13.5223 12.0093 13.5223H1.68082C1.56689 13.5223 1.47228 13.4273 1.47228 13.313V10.4492C1.47228 10.0411 1.1427 9.71029 0.736147 9.71029C0.32958 9.71029 0 10.0411 0 10.4492V13.313C0 14.2431 0.754119 15 1.68082 15H12.0093C12.936 15 13.6901 14.2431 13.6901 13.313V10.4492C13.6901 10.0411 13.3606 9.71029 12.954 9.71029C12.5474 9.71029 12.2179 10.0411 12.2179 10.4492Z" fill="#28643B"/>
</svg>
