<svg width="34" height="34" viewBox="0 0 34 34" fill="none" xmlns="http://www.w3.org/2000/svg">
<rect width="34" height="34" fill="white"/>
<path d="M9.66536 24.3346C9.1612 24.3346 8.72975 24.1553 8.37103 23.7966C8.01231 23.4378 7.83264 23.0061 7.83203 22.5013V11.5013C7.83203 10.9971 8.0117 10.5657 8.37103 10.207C8.73036 9.84825 9.16181 9.66858 9.66536 9.66797L11.1549 12.6471C11.2619 12.861 11.4147 13.0291 11.6133 13.1513C11.8119 13.2735 12.0258 13.3346 12.2549 13.3346C12.7133 13.3346 13.0647 13.1397 13.3091 12.7498C13.5536 12.3599 13.5688 11.959 13.3549 11.5471L12.4154 9.66797H14.2487L15.7383 12.6471C15.8452 12.861 15.998 13.0291 16.1966 13.1513C16.3952 13.2735 16.6091 13.3346 16.8383 13.3346C17.2966 13.3346 17.648 13.1397 17.8924 12.7498C18.1369 12.3599 18.1522 11.959 17.9383 11.5471L16.9987 9.66797H18.832L20.3216 12.6471C20.4286 12.861 20.5813 13.0291 20.7799 13.1513C20.9786 13.2735 21.1924 13.3346 21.4216 13.3346C21.8799 13.3346 22.2313 13.1397 22.4758 12.7498C22.7202 12.3599 22.7355 11.959 22.5216 11.5471L21.582 9.66797H24.332C24.8362 9.66797 25.2679 9.84733 25.6273 10.2061C25.9866 10.5648 26.166 10.9965 26.1654 11.5013V14.6638C26.1654 14.8471 26.089 14.9923 25.9362 15.0992C25.7834 15.2062 25.6154 15.2367 25.432 15.1909C24.9279 15.0992 24.4274 15.1258 23.9305 15.2706C23.4337 15.4155 22.987 15.6868 22.5904 16.0846L17.5258 21.1492C17.3577 21.3173 17.2279 21.5122 17.1362 21.7341C17.0445 21.9559 16.9987 22.1887 16.9987 22.4326V23.418C16.9987 23.6777 16.9107 23.8956 16.7347 24.0716C16.5587 24.2476 16.3411 24.3352 16.082 24.3346H9.66536ZM18.832 24.3346V22.8221C18.832 22.6999 18.8549 22.5817 18.9008 22.4674C18.9466 22.3531 19.0154 22.2498 19.107 22.1576L23.8966 17.3909C24.0341 17.2534 24.1869 17.1541 24.3549 17.093C24.523 17.0319 24.6911 17.0013 24.8591 17.0013C25.0424 17.0013 25.2181 17.0358 25.3862 17.1049C25.5543 17.1739 25.707 17.2769 25.8445 17.4138L26.6924 18.2617C26.8147 18.3992 26.9103 18.552 26.9794 18.7201C27.0484 18.8881 27.0826 19.0562 27.082 19.2242C27.0814 19.3923 27.0509 19.5643 26.9904 19.7403C26.9299 19.9163 26.8306 20.0727 26.6924 20.2096L21.9258 24.9763C21.8341 25.068 21.7311 25.1367 21.6169 25.1826C21.5026 25.2284 21.384 25.2513 21.2612 25.2513H19.7487C19.489 25.2513 19.2714 25.1636 19.096 24.9882C18.9206 24.8128 18.8326 24.595 18.832 24.3346ZM24.8591 20.118L25.707 19.2242L24.8591 18.3763L23.9883 19.2471L24.8591 20.118Z" fill="black"/>
</svg>
