<svg width="25" height="25" viewBox="0 0 25 25" fill="none" xmlns="http://www.w3.org/2000/svg">
<g clip-path="url(#clip0_57_28520)">
<g clip-path="url(#clip1_57_28520)">
<path opacity="0.4" d="M17.709 21.3568H7.29231C4.16731 21.3568 2.08398 19.7943 2.08398 16.1484V8.85677C2.08398 5.21094 4.16731 3.64844 7.29231 3.64844H17.709C20.834 3.64844 22.9173 5.21094 22.9173 8.85677V16.1484C22.9173 19.7943 20.834 21.3568 17.709 21.3568Z" fill="#28643B"/>
<path d="M12.5002 13.4045C11.6252 13.4045 10.7398 13.1337 10.0627 12.5816L6.80229 9.97743C6.46896 9.70659 6.40647 9.21701 6.6773 8.88368C6.94813 8.55034 7.43772 8.48785 7.77105 8.75868L11.0314 11.3628C11.8231 11.9983 13.1668 11.9983 13.9585 11.3628L17.2189 8.75868C17.5523 8.48785 18.0523 8.53993 18.3127 8.88368C18.5835 9.21701 18.5314 9.71701 18.1877 9.97743L14.9273 12.5816C14.2606 13.1337 13.3752 13.4045 12.5002 13.4045Z" fill="#28643B"/>
</g>
</g>
<defs>
<clipPath id="clip0_57_28520">
<rect width="25" height="25" fill="white"/>
</clipPath>
<clipPath id="clip1_57_28520">
<rect width="25" height="25" fill="white"/>
</clipPath>
</defs>
</svg>
