<svg width="40" height="40" viewBox="0 0 40 40" fill="none" xmlns="http://www.w3.org/2000/svg">
<rect width="40" height="40" rx="8" fill="#3A643B" fill-opacity="0.05"/>
<g clip-path="url(#clip0_57_28391)">
<g clip-path="url(#clip1_57_28391)">
<path opacity="0.4" d="M24.9053 16.2987C24.8441 16.29 24.7828 16.29 24.7216 16.2987C23.3653 16.255 22.2891 15.1437 22.2891 13.7787C22.2891 12.3875 23.4178 11.25 24.8178 11.25C26.2091 11.25 27.3466 12.3787 27.3466 13.7787C27.3378 15.1437 26.2616 16.255 24.9053 16.2987Z" fill="#474856" fill-opacity="0.75"/>
<path opacity="0.4" d="M27.7561 22.3638C26.7761 23.0201 25.4023 23.2651 24.1336 23.0988C24.4661 22.3813 24.6411 21.5851 24.6498 20.7451C24.6498 19.8701 24.4573 19.0388 24.0898 18.3126C25.3848 18.1376 26.7586 18.3826 27.7473 19.0388C29.1298 19.9488 29.1298 21.4451 27.7561 22.3638Z" fill="#474856" fill-opacity="0.75"/>
<path opacity="0.4" d="M15.201 16.2987C15.2623 16.29 15.3235 16.29 15.3848 16.2987C16.741 16.255 17.8173 15.1437 17.8173 13.7787C17.8173 12.3875 16.6885 11.25 15.2885 11.25C13.8973 11.25 12.7598 12.3787 12.7598 13.7787C12.7685 15.1437 13.8448 16.255 15.201 16.2987Z" fill="#474856" fill-opacity="0.75"/>
<path opacity="0.4" d="M15.2981 20.7452C15.2981 21.594 15.4819 22.399 15.8144 23.1252C14.5806 23.2565 13.2944 22.994 12.3494 22.3727C10.9669 21.454 10.9669 19.9577 12.3494 19.039C13.2856 18.409 14.6069 18.1552 15.8494 18.2952C15.4906 19.0302 15.2981 19.8615 15.2981 20.7452Z" fill="#474856" fill-opacity="0.75"/>
<path d="M20.1706 23.3862C20.1006 23.3775 20.0219 23.3775 19.9431 23.3862C18.3331 23.3337 17.0469 22.0125 17.0469 20.385C17.0469 18.7225 18.3856 17.375 20.0569 17.375C21.7194 17.375 23.0669 18.7225 23.0669 20.385C23.0669 22.0125 21.7894 23.3337 20.1706 23.3862Z" fill="#474856" fill-opacity="0.75"/>
<path d="M17.3288 25.2C16.0076 26.0837 16.0076 27.5362 17.3288 28.4112C18.8338 29.4175 21.3013 29.4175 22.8063 28.4112C24.1276 27.5275 24.1276 26.075 22.8063 25.2C21.3101 24.1937 18.8426 24.1937 17.3288 25.2Z" fill="#474856" fill-opacity="0.75"/>
</g>
</g>
<defs>
<clipPath id="clip0_57_28391">
<rect width="22" height="21" fill="white" transform="translate(9 9.5)"/>
</clipPath>
<clipPath id="clip1_57_28391">
<rect width="22" height="21" fill="white" transform="translate(9 9.5)"/>
</clipPath>
</defs>
</svg>
