<svg width="25" height="26" viewBox="0 0 25 26" fill="none" xmlns="http://www.w3.org/2000/svg">
<g clip-path="url(#clip0_57_28538)">
<g clip-path="url(#clip1_57_28538)">
<path opacity="0.4" d="M2.08398 13.9129V12.0796C2.08398 10.9963 2.9694 10.1004 4.06315 10.1004C5.94857 10.1004 6.7194 8.76708 5.77148 7.13167C5.22982 6.19417 5.55273 4.97542 6.50065 4.43375L8.30273 3.4025C9.12565 2.91292 10.1881 3.20458 10.6777 4.0275L10.7923 4.22542C11.7298 5.86083 13.2715 5.86083 14.2194 4.22542L14.334 4.0275C14.8235 3.20458 15.886 2.91292 16.709 3.4025L18.511 4.43375C19.459 4.97542 19.7819 6.19417 19.2402 7.13167C18.2923 8.76708 19.0631 10.1004 20.9485 10.1004C22.0319 10.1004 22.9277 10.9858 22.9277 12.0796V13.9129C22.9277 14.9963 22.0423 15.8921 20.9485 15.8921C19.0631 15.8921 18.2923 17.2254 19.2402 18.8608C19.7819 19.8088 19.459 21.0171 18.511 21.5588L16.709 22.59C15.886 23.0796 14.8235 22.7879 14.334 21.965L14.2194 21.7671C13.2819 20.1317 11.7402 20.1317 10.7923 21.7671L10.6777 21.965C10.1881 22.7879 9.12565 23.0796 8.30273 22.59L6.50065 21.5588C5.55273 21.0171 5.22982 19.7983 5.77148 18.8608C6.7194 17.2254 5.94857 15.8921 4.06315 15.8921C2.9694 15.8921 2.08398 14.9963 2.08398 13.9129Z" fill="#28643B"/>
<path d="M12.5006 16.388C14.3703 16.388 15.886 14.8723 15.886 13.0026C15.886 11.1329 14.3703 9.61719 12.5006 9.61719C10.6309 9.61719 9.11523 11.1329 9.11523 13.0026C9.11523 14.8723 10.6309 16.388 12.5006 16.388Z" fill="#28643B"/>
</g>
</g>
<defs>
<clipPath id="clip0_57_28538">
<rect width="25" height="26" fill="white"/>
</clipPath>
<clipPath id="clip1_57_28538">
<rect width="25" height="26" fill="white"/>
</clipPath>
</defs>
</svg>
