<svg width="14" height="14" viewBox="0 0 14 14" fill="none" xmlns="http://www.w3.org/2000/svg">
<path fill-rule="evenodd" clip-rule="evenodd" d="M13.829 3.93103C13.5865 4.18966 13.1882 4.18966 12.9457 3.93103L11.3351 2.25862V13.3793C11.3351 13.7241 11.058 14 10.7116 14C10.3652 14 10.0881 13.7241 10.0881 13.3793V2.25862L8.47749 3.93103C8.23503 4.18966 7.8367 4.18966 7.59424 3.93103C7.35178 3.67241 7.35178 3.25862 7.59424 3L10.2094 0.258621C10.2094 0.258621 10.2094 0.258621 10.2267 0.241379L10.2613 0.206897C10.3652 0.086207 10.5211 0.0172414 10.6943 0.0172414C10.8675 0.0172414 11.0233 0.086207 11.1446 0.206897L13.8116 3C14.0714 3.25862 14.0714 3.67241 13.829 3.93103ZM3.78413 13.7414L3.73217 13.7931C3.62826 13.9138 3.47239 13.9828 3.29921 13.9828C3.12602 13.9828 2.97015 13.9138 2.84892 13.7931L0.181846 11C-0.0606153 10.7414 -0.0606153 10.3276 0.181846 10.069C0.424307 9.81035 0.822637 9.81035 1.0651 10.069L2.67573 11.7414V0.62069C2.67573 0.275862 2.95283 0 3.29921 0C3.64558 0 3.92268 0.275862 3.92268 0.62069V11.7414L5.53332 10.069C5.77578 9.81035 6.17411 9.81035 6.41657 10.069C6.65903 10.3276 6.65903 10.7414 6.41657 11L3.78413 13.7414Z" fill="#3A643B"/>
</svg>
