<svg width="40" height="40" viewBox="0 0 40 40" fill="none" xmlns="http://www.w3.org/2000/svg">
<rect width="40" height="40" rx="8" fill="#3A643B" fill-opacity="0.05"/>
<g clip-path="url(#clip0_57_28434)">
<g clip-path="url(#clip1_57_28434)">
<path opacity="0.4" d="M23.491 11.6641H16.5077C13.4744 11.6641 11.666 13.4724 11.666 16.5057V23.4807C11.666 26.5224 13.4744 28.3307 16.5077 28.3307H23.4827C26.516 28.3307 28.3243 26.5224 28.3243 23.4891V16.5057C28.3327 13.4724 26.5243 11.6641 23.491 11.6641Z" fill="#474856" fill-opacity="0.75"/>
<path opacity="0.97" d="M19.9999 18.5896C20.6028 18.5896 21.0915 18.1008 21.0915 17.4979C21.0915 16.895 20.6028 16.4062 19.9999 16.4062C19.397 16.4062 18.9082 16.895 18.9082 17.4979C18.9082 18.1008 19.397 18.5896 19.9999 18.5896Z" fill="#474856" fill-opacity="0.75"/>
<path opacity="0.97" d="M16.9256 21.4062C16.3256 21.4062 15.834 21.8979 15.834 22.4979C15.834 23.0979 16.3256 23.5896 16.9256 23.5896C17.5256 23.5896 18.0173 23.0979 18.0173 22.4979C18.0173 21.8979 17.5256 21.4062 16.9256 21.4062Z" fill="#474856" fill-opacity="0.75"/>
<path opacity="0.97" d="M23.076 21.4062C22.476 21.4062 21.9844 21.8979 21.9844 22.4979C21.9844 23.0979 22.476 23.5896 23.076 23.5896C23.676 23.5896 24.1677 23.0979 24.1677 22.4979C24.1677 21.8979 23.676 21.4062 23.076 21.4062Z" fill="#474856" fill-opacity="0.75"/>
</g>
</g>
<defs>
<clipPath id="clip0_57_28434">
<rect width="20" height="20" fill="white" transform="translate(10 10)"/>
</clipPath>
<clipPath id="clip1_57_28434">
<rect width="20" height="20" fill="white" transform="translate(10 10)"/>
</clipPath>
</defs>
</svg>
